<?xml version="1.0" encoding="UTF-8"?>
<svg xmlns="http://www.w3.org/2000/svg" xmlns:xlink="http://www.w3.org/1999/xlink" viewBox="0 0 1153.68 421.39">
  <defs>
    <style>
      .cls-1 {
        fill: #0064b1;
      }

      .cls-2 {
        fill: #003772;
      }

      .cls-3 {
        fill: none;
      }

      .cls-4 {
        fill: #008ae4;
      }

      .cls-5 {
        fill: #f9f9e4;
      }

      .cls-6 {
        clip-path: url(#clippath);
      }
    </style>
    <clipPath id="clippath">
      <path class="cls-3" d="M257.04,241.31c.36.81.7,2.01.66,3-.09,1.98-1.18,4.11-3.19,4.81l-38.16,11.72c-1.01.35-2.2.49-3.19.45-3.16-.14-5.45-2.03-5.98-3.44l-39.37-100.42c-.53-1.41-1.09-2.03-1.69-2.06-1.58-.07-4.01,5.36-17.9,36.21l22.47,2.22c2.57.12,4.45,2.38,4.33,4.95l-.02.4-3.99,35.27c-.31,2.36-2.38,4.45-4.95,4.33l-.4-.02-36.48-3.45c-4.19,9.31-7.29,16.5-7.96,18.25-1.1,2.33-2.74,3.64-5.11,3.53-.99-.05-1.97-.29-3.13-.74l-29.84-10.08c-3.7-1.36-5.17-3.8-5.04-6.77.28-6.13,39.15-115.64,72.74-144.21,1.23-.93,4.26-2.18,7.22-2.05l28.66,1.31c4.15.19,7.42,2.32,8.13,4.13l62.19,142.66ZM329.71,121.2c-5.05-1.93-10.52-3.4-16.25-4.22-8.42-1.21-17.38-1.12-26.89.44l-19.69-1.79c-1.85-.27-3.61,1.2-3.9,3.22l-7.85,88.3c-.29,2.02,1.2,3.61,3.22,3.9l33.8,2.96c1.85.27,3.59-1.03,3.85-2.89l.05-.34,5.35-60.11c2.79-.29,5.2-.29,7.56.05,2.86.41,5.66,1.33,8.23,2.56.65.26,1.3.53,1.81.6,2.02.29,3.88-.65,4.72-2.93l8.29-23.06c.29-.82.55-1.47.65-2.14.29-2.02-.53-3.52-2.96-4.55ZM1065.32,152.01c-1.69-.12-11.53-.33-13.22-.45-2.33,3.26-6.22,5.02-10.15,4.58-5.68-.63-8.31-5.51-8.52-5.9.98-10.58,1.73-13.71,1.66-16.93-.02-.9-.1-2.49-1.22-3.59-.7-.69-1.71-1.1-3.04-1.17l-32.17-1.53h-.68c-4.43,0-4.77,3.23-4.94,5.28-.51,7.32-1.15,14.64-1.49,21.1l-19.28-2.34c-2.04,0-3.57,1.53-3.75,3.4l-2.81,39.29c.03.56.17,1.68,1,2.51.35.34.76.58,1.81.9,1.46.44,6.34,1.63,9.05,1.12.82-.15,1.43-.27,2.11-.61,2.88-1.45,3.02-15.17,4.77-18.45.92-1.73,2.65-4.07,6.16-6.21-.04,3.52-.01,9.05.43,15.8,1.54,23.64,2.6,41.21,14.21,52.56,5.72,5.59,13.42,8.92,23.58,10.94.51.17,1.02.17,1.53.17,2.55,0,4.08-1.7,5.45-4.94l8.85-21.45c.17-.51.34-1.02.34-1.36,0-1.87-2.04-2.55-3.92-3.4-7.49-3.23-8.49-11.47-8.49-26.96.25-.35,3.5-4.77,9.22-4.61,5.8.17,8.79,4.89,9,5.23,2.11.23,12.36.56,14.46.79.44-.45.97-1.06,1.46-1.84.53-.84.85-1.63,1.06-2.26l.92-35.9c0-2.04-1.53-3.75-3.4-3.75ZM436.06,96.49c.36-2.15-.82-3.85-3.13-7.18-2.29-3.29-3.45-4.96-5.58-5.39-3.49-.7-7.84,2.3-8.5,5.92-.44,2.37.84,4.29,2.66,7.04,1.87,2.83,3.25,4.92,5.75,5.42,3.69.75,8.2-2.26,8.8-5.81ZM441.93,145.43c-.15,1.59-1.2,13.75,4.29,16.42.87.42,1.43.38,8.97.1,7.36-.27,8.02-.27,8.86-.85,4.46-3.07,1.69-14.03,1.11-16.18.92-.48,13.02-7.08,13.88-19.27.92-12.84-11.12-25.15-25.02-25.19-13.95-.04-25.82,12.27-25.19,25.19.59,12.22,12.06,19.17,13.09,19.78ZM473.05,164.82h-.34l-34.04,1.7c-2.04.17-3.4,1.7-3.4,3.74l4.26,82.9c.17,1.87,1.53,3.4,3.4,3.4h.34l34.05-1.7c1.7-.17,3.23-1.7,3.23-3.41v-.34l-4.26-83.07c0-1.7-1.53-3.23-3.23-3.23ZM417,105.64c-3.77-1.36-5.68-2.05-7.67-1.16-3.25,1.45-5.06,6.41-3.51,9.75,1.02,2.18,3.17,3.01,6.24,4.2,3.17,1.22,5.5,2.12,7.83,1.09,3.44-1.53,5.38-6.59,3.81-9.83-.95-1.96-2.9-2.67-6.71-4.04ZM458.43,93.76c1.5-1.59,1.46-3.66,1.39-7.71-.07-4.01-.11-6.04-1.64-7.58-2.52-2.52-7.79-2.45-10.36.19-1.68,1.73-1.69,4.03-1.71,7.33-.02,3.4-.03,5.89,1.77,7.71,2.65,2.67,8.07,2.68,10.55.06ZM501.92,114.47c1.61-3.18-.1-8.17-3.4-9.78-2.16-1.06-4.36-.35-7.49.66-3.23,1.04-5.61,1.81-6.77,4.08-1.71,3.35-.03,8.51,3.22,10.04,1.97.93,3.93.25,7.76-1.08,3.79-1.32,5.71-1.98,6.69-3.92ZM487.81,90.66c-.41-3.54-4.6-6.75-8.24-6.27-2.39.31-3.83,2.12-5.88,4.69-2.12,2.65-3.68,4.61-3.39,7.14.42,3.74,4.68,7.11,8.24,6.59,2.16-.31,3.41-1.96,5.87-5.18,2.43-3.19,3.66-4.81,3.41-6.96ZM559.23,130.05c-.84-3.18-2.46-4.04-9.06-4.79-22.16-2.49-50.87,4.57-53.02,23.68-.72,6.43,1.51,14.04,8,23.34l4,5.59c2.03,3.31,3.92,6.26,3.67,8.46-.46,4.06-5.72,8.27-15.72,7.31-2.03-.23-5.45-.27-5.74,2.27-.04.34.07.86.19,1.39l5.24,20.46c.69,2.99,2.31,3.86,6.03,4.27l1.86.21c22.67,2.54,54.16-4.88,56.4-24.84.72-6.43-1.81-14.42-8.64-23.75-5.63-7.83-7.81-11.33-7.48-14.2.38-3.38,4.65-6.33,14.8-5.19l.68.08c2.2.25,4.14-.22,4.34-2.08.06-.51.11-1.02-.15-1.73l-5.41-20.48ZM676.85,220.49c4.03,3.24,8.06,6.47,12.09,9.71-3.86,6.68-7.71,13.37-11.57,20.05-1.89,1.38-3.77,2.77-5.66,4.15-7.19-3.94-14.38-7.87-21.57-11.81-9.01,1.77-18.01,3.54-27.02,5.3-12.88-5.09-25.76-10.18-38.64-15.27-3.93-12.17-7.86-24.33-11.79-36.5,2.42-9.18,4.83-18.36,7.25-27.55,6.57-5.09,13.14-10.17,19.72-15.26,7.88-1.54,15.76-3.08,23.63-4.62,8.47,3.58,16.93,7.17,25.4,10.75.58-2.45,1.16-4.91,1.74-7.36,11.93,2.57,23.86,5.14,35.79,7.71-2.13,14.79-4.25,29.58-6.38,44.37-.99,5.44-1.99,10.87-2.98,16.31ZM647.15,190.2c-5.08-5.48-10.16-10.96-15.24-16.44-7,2.5-13.99,5-20.99,7.49-1.74,7.09-3.49,14.18-5.23,21.27,4.99,5.65,9.98,11.31,14.96,16.96,7.55-2.85,15.1-5.7,22.65-8.55,1.28-6.91,2.56-13.83,3.85-20.74ZM411.54,216.53c-8.07-1.22-13.03-12.06-16.98-27.04l10.99-2.37.33-.09c1.81-.48,2.74-2.31,2.47-4l-5.23-27.85c-.52-1.98-2.44-3.23-4.25-2.75l-11.53,2.34c-1.33-7.04-2.74-14.42-4.24-21.42-.74-2.8-2.49-4.1-5.33-3.52l-31.5,6.72-.66.17c-4.28,1.13-3.79,4.34-3.43,6.36,1.37,7.21,2.82,14.04,4.14,20.39l-10.71,2.12c-1.97.52-3.07,2.39-2.75,4.25l5.23,27.85c.48,1.81,2.39,3.07,4.25,2.75l12.52-2.6c11.8,41.43,24.83,53.48,52.72,51.77.54.03,1.03-.1,1.52-.23,2.47-.65,3.52-2.69,4.01-6.16l3.09-23c.03-.54.07-1.07-.02-1.4-.48-1.81-2.63-1.95-4.65-2.29ZM819.7,224.97c-4.18-3.36-5.84-7.88-6.59-9.96-2.03-5.63-.17-7.22-1.82-12.69-1.29-4.28-3.64-7.35-5.36-9.22,1.09-2.63,2.38-6.45,3.04-11.18.12-.84,1.75-13.78-4.19-26.79-12.35-27.08-47.24-32.14-51.05-32.51-6.1-.6-12.43-.54-19.17.17l-18.87-2.88-.34-.03c-1.69-.17-3.37,1.21-3.72,3.06l-13.23,87.64c-.2,2.03,1.01,3.69,3.02,4.06l33.72,5.02.34.03c1.69.17,3.37-1.21,3.54-2.9l9.26-61.18c6.05,1.77,10.38,4.38,13.05,6.29,2.87,2.05,10.84,8.17,13.68,19.02.99,3.77,1.07,7.04.98,9.22-.45.82-7.67,14.42-1.03,25.15.62,1,2.76,4.37,6.87,6.7,4.66,2.64,9.6,4.03,15.91,2.41,5.13-1.31,9-1.03,11.66-.48,4.94,1.02,9.77,2.65,9.77,2.65,1.86.62,3.67,1.31,3.81,1.02.15-.3-1.73-1.36-3.29-2.61ZM958.76,221.63c.05.36-.06.92-.33,1.69l-8.32,23.16c-1.22,3.26-2.81,5.11-5.14,5.41-1.8.23-14.73-1.01-24.8-8.29-8.71,6.06-18.12,9.46-27.28,10.65-29.98,3.88-58.8-15.76-62.54-44.66-2.79-21.54,8.45-54.57,44-59.17,8.98-1.16,18.03-.32,25.42,1.82.91-1.4,2.46-2.14,4.62-2.42l.9-.12,31.4-1.33c4.71-.24,6.27,1.93,6.55,4.08l.12.9c-.4,16.66-.89,32.6.64,44.45,1.39,10.77,4.37,18.23,10.51,20.54,1.91.67,4.03,1.49,4.26,3.28ZM904.13,217.01c-1.14-4.6-2.15-9.58-2.87-15.14-.6-4.67-1.05-9.54-1.39-14.97-2.62-3.31-7.79-5.2-13-4.52-11.31,1.46-16.18,13.23-14.99,22.38,1.3,10.05,9.42,17.76,21.09,16.26,3.41-.44,7.27-1.67,11.16-4Z"/>
    </clipPath>
  </defs>
  <g id="Shadow">
    <path class="cls-2" d="M1082.7,150.29c-9.69-3.84-13.47-12.16-22.16-17.79-9.66-6.38-21.37-7.01-31.71-7.56-19.31-1.08-34.23-.64-48.61,18.04-5.01,7.33-12.99,7.25-21.06,5.1-17.7-3.83-35.62-.44-53.45-.57-25.12-.78-41.71,4.15-63.46,17.05-24.15-31.27-55.35-46.51-95.52-45.75-19.11-1.5-43.15-2.95-51.82,27.45-1.31,5.19-2.72,7.42-3.52,7.76-22.19-1.64-44.24-11-69.06-5.82-6.86.68-13.92,3.84-20.35,3.91-1.42-.32-2.35-1.51-5.05-6.2-12.85-24.29-27.38-20.71-55.52-25.64-11.03-6.52-16.18-21.36-27.02-29.48-9.24-7.45-19.41-8.88-29.59-12.12-14.3-5.84-30.88-3.97-42.75.4-18.86,3.4-33.36,13.13-42.49,30.44-7.26,13.64-18.42,22.55-32.7,19.26-22.63-11.91-40.92-16.81-66.58-15.27-28.39-1.46-48.44,2.3-54.67,29.41-11.48-28.51-19.66-52.04-59.75-52.31-12.75-.62-25.21-.62-37.39,5.81-39.84,28.11-58.83,87.82-78.4,134.1-21.75,46.56-1.81,70.58,34.36,79.27,27.22,9.26,34.14,3.03,56-12.25,7.33-2.11,17.68-1.66,25.45-1.87,13.45,5.67,14.83,22.94,39.54,22.61,21.97-2.49,63.69-9.48,70.7-38.75.68-2.23,1.69-5.52,2.76-6.49,16.19-5.66,25.75-6.04,34.33-22.99,9.86,5.95,17.13,16.96,23.2,27.23,14.03,21.54,39.22,32.73,67.42,29.96,7.9-.35,16.51,3.61,24.59,5.7,8.23,2.05,16.06,1.59,23.86,1.28,13.41.39,39.92-3.95,46.27-24.58,2.08-4.54,3.37-7.25,5.65-8.08,12.87-2.35,27.37-3.4,39.49-7.77,5.25-2.53,11.1,7.23,16.39,10.84,7.39,5.65,15.64,7.94,23.98,11.58,10.63,4.46,21.61,9.06,34.04,8.83,20.3-2.5,21.76.96,39.84,6.69,21.86,4.33,35.62-17.17,41-25.46,6.08-10.21,8.34-10.18,19.22-9.97,10.44,1.74,22.09-3.72,31.58-5.44,9.21,2.45,19.55,10.83,31.84,11.24,27.11.1,32.37,5.34,53.99,19.73,22.59,13.48,50.09,12.03,74.96,6.15,30.3,2.07,47.18,2.52,60.3-25.11,33.38,40.24,81.77,35.05,93.5-19.23,1.84-5.83,3.68-9.52,6.15-12.27,17.49-16.56,19.28-26.28,19.87-49.59.88-19.83-.48-41.77-27.65-51.46Z"/>
  </g>
  <g id="Outline">
    <path class="cls-5" d="M1071.01,122.69c-9.69-3.84-13.47-12.16-22.16-17.79-9.66-6.38-21.37-7.01-31.71-7.56-19.31-1.08-34.23-.64-48.61,18.04-5.01,7.33-12.99,7.25-21.06,5.1-17.7-3.83-35.62-.44-53.45-.57-25.12-.78-41.71,4.15-63.46,17.05-24.15-31.27-55.35-46.51-95.52-45.75-19.11-1.5-43.15-2.95-51.82,27.45-1.31,5.19-2.72,7.42-3.52,7.76-22.19-1.64-44.24-11-69.06-5.82-6.86.68-13.92,3.84-20.35,3.91-1.42-.32-2.35-1.51-5.05-6.2-12.85-24.29-27.38-20.71-55.52-25.64-11.03-6.52-16.18-21.36-27.02-29.48-9.24-7.45-19.41-8.88-29.59-12.12-14.3-5.84-30.88-3.97-42.75.4-18.86,3.4-33.36,13.13-42.49,30.44-7.26,13.64-18.42,22.55-32.7,19.26-22.63-11.91-40.92-16.81-66.58-15.27-28.39-1.46-48.44,2.3-54.67,29.41-11.48-28.51-19.66-52.04-59.75-52.31-12.75-.62-25.21-.62-37.39,5.81-39.84,28.11-58.83,87.82-78.4,134.1-21.75,46.56-1.81,70.58,34.36,79.27,27.22,9.26,34.14,3.03,56-12.25,7.33-2.11,17.68-1.66,25.45-1.87,13.45,5.67,14.83,22.94,39.54,22.61,21.97-2.49,63.69-9.48,70.7-38.75.68-2.23,1.69-5.52,2.76-6.49,16.19-5.66,25.75-6.04,34.33-22.99,9.86,5.95,17.13,16.96,23.2,27.23,14.03,21.54,39.22,32.73,67.42,29.96,7.9-.35,16.51,3.61,24.59,5.7,8.23,2.05,16.06,1.59,23.86,1.28,13.41.39,39.92-3.95,46.27-24.58,2.08-4.54,3.37-7.25,5.65-8.08,12.87-2.35,27.37-3.4,39.49-7.77,5.25-2.53,11.1,7.23,16.39,10.84,7.39,5.65,15.64,7.94,23.98,11.58,10.63,4.46,21.61,9.06,34.04,8.83,20.3-2.5,21.76.96,39.84,6.69,21.86,4.33,35.62-17.17,41-25.46,6.08-10.21,8.34-10.18,19.22-9.97,10.44,1.74,22.09-3.72,31.58-5.44,9.21,2.45,19.55,10.83,31.84,11.24,27.11.1,32.37,5.34,53.99,19.73,22.59,13.48,50.09,12.03,74.96,6.15,30.3,2.07,47.18,2.52,60.3-25.11,33.38,40.24,81.77,35.05,93.5-19.23,1.84-5.83,3.68-9.52,6.15-12.27,17.49-16.56,19.28-26.28,19.87-49.59.88-19.83-.48-41.77-27.65-51.46Z"/>
  </g>
  <g id="Text">
    <g class="cls-6">
      <rect class="cls-4" y="46.58" width="1148.21" height="271.33"/>
      <g>
        <rect class="cls-1" x="494.77" y="228.93" width="22.72" height="68.15" rx="3.2" ry="3.2" transform="translate(231.21 762.76) rotate(-88.64)"/>
        <rect class="cls-1" x="422.21" y="225.52" width="22.72" height="68.15" rx="3.2" ry="3.2" transform="translate(140.48 671.26) rotate(-85.46)"/>
        <rect class="cls-1" x="349.65" y="219.08" width="22.72" height="68.15" rx="3.2" ry="3.2" transform="translate(99.34 608.04) rotate(-88.64)"/>
        <rect class="cls-1" x="277.09" y="216.06" width="22.72" height="68.15" rx="3.2" ry="3.2" transform="translate(21.72 523.3) rotate(-86.62)"/>
        <rect class="cls-1" x="204.53" y="211.76" width="22.72" height="68.15" rx="3.2" ry="3.2" transform="translate(-42.27 446.83) rotate(-86.62)"/>
        <rect class="cls-1" x="131.96" y="207.47" width="22.72" height="68.15" rx="3.2" ry="3.2" transform="translate(-100.69 380.63) rotate(-89)"/>
        <rect class="cls-1" x="59.4" y="203.18" width="22.72" height="68.15" rx="3.2" ry="3.2" transform="translate(-172.71 282.2) rotate(-83.85)"/>
        <rect class="cls-1" x="93.55" y="177.84" width="22.72" height="68.15" rx="3.2" ry="3.2" transform="translate(-107.95 314.89) rotate(-89.48)"/>
        <rect class="cls-1" x="167.59" y="182.27" width="22.72" height="68.15" rx="3.2" ry="3.2" transform="translate(-54.16 372.84) rotate(-84.28)"/>
        <rect class="cls-1" x="218.7" y="209.07" width="68.15" height="22.72" rx="3.2" ry="3.2" transform="translate(-7.65 9.09) rotate(-2.03)"/>
        <rect class="cls-1" x="313.36" y="189.47" width="22.72" height="68.15" rx="3.2" ry="3.2" transform="translate(82.39 534.5) rotate(-86.62)"/>
        <rect class="cls-1" x="385.27" y="195.15" width="22.72" height="68.15" rx="3.2" ry="3.2" transform="translate(121.76 595.7) rotate(-83.15)"/>
        <rect class="cls-1" x="457.83" y="200.67" width="22.72" height="68.15" rx="3.2" ry="3.2" transform="translate(224.57 698.86) rotate(-88.79)"/>
        <rect class="cls-1" x="602.95" y="208.02" width="22.72" height="68.15" rx="3.2" ry="3.2" transform="translate(317.34 831.83) rotate(-84.78)"/>
        <rect class="cls-1" x="652.8" y="235.03" width="68.15" height="22.72" rx="3.2" ry="3.2" transform="translate(-2.05 5.78) rotate(-.48)"/>
        <rect class="cls-1" x="824.99" y="214.03" width="22.72" height="68.15" rx="3.2" ry="3.2" transform="translate(522.83 1062.19) rotate(-85.46)"/>
        <path class="cls-1" d="M942.94,264.93l1.41-16.25c.15-1.76-1.17-3.31-2.95-3.47l-62.29-5.29c-1.78-.15-3.35,1.15-3.51,2.92l-1.41,16.25c-.15,1.76,1.17,3.31,2.96,3.47l62.29,5.29c1.78.15,3.35-1.15,3.51-2.92Z"/>
        <rect class="cls-1" x="1005.92" y="206.96" width="22.72" height="68.15" rx="3.2" ry="3.2" transform="translate(698.91 1236.82) rotate(-85.6)"/>
        <path class="cls-1" d="M915.11,215.76c-1.76-.17-3.33,1.11-3.5,2.87l-1.6,16.23c-.17,1.76,1.11,3.33,2.87,3.5l61.44,6.06c1.76.17,3.33-1.11,3.5-2.87l1.6-16.23c.17-1.76-1.11-3.33-2.87-3.5"/>
        <rect class="cls-1" x="858.1" y="189.98" width="22.72" height="68.15" rx="3.2" ry="3.2" transform="translate(594.47 1078.77) rotate(-86.62)"/>
        <rect class="cls-1" x="786.14" y="191.17" width="22.72" height="68.15" rx="3.2" ry="3.2" transform="translate(504.31 1000.33) rotate(-85.05)"/>
        <rect class="cls-1" x="715.67" y="187.38" width="22.72" height="68.15" rx="3.2" ry="3.2" transform="translate(490.74 943.8) rotate(-88.83)"/>
        <rect class="cls-1" x="643.11" y="183.09" width="22.72" height="68.15" rx="3.2" ry="3.2" transform="translate(427.44 868.27) rotate(-89.13)"/>
        <rect class="cls-1" x="565.81" y="178.44" width="22.72" height="68.15" rx="3.2" ry="3.2" transform="translate(315.2 768.98) rotate(-85)"/>
        <rect class="cls-1" x="492.07" y="174.51" width="22.72" height="68.15" rx="3.2" ry="3.2" transform="translate(280.45 705.8) rotate(-88.35)"/>
        <path class="cls-1" d="M429.72,214.43l29.53,2.71c1.57.14,2.95-1.25,3.09-3.11l1.23-17.2c.13-1.86-1.03-3.49-2.6-3.64l-31.21-2.87"/>
        <rect class="cls-1" x="335.26" y="188.64" width="68.15" height="22.72" rx="3.2" ry="3.2" transform="translate(-3.54 6.67) rotate(-1.03)"/>
        <rect class="cls-1" x="274.65" y="161.63" width="22.72" height="68.15" rx="3.2" ry="3.2" transform="translate(73.76 469.66) rotate(-86.62)"/>
        <rect class="cls-1" x="753.19" y="162.55" width="22.72" height="68.15" rx="3.2" ry="3.2" transform="translate(523.14 948.23) rotate(-86.62)"/>
        <path class="cls-1" d="M695.79,203.45l23.29,1.38c.21.01,1.35.06,2.32-.8.61-.54,1.02-1.32,1.07-2.2l.96-16.28c.1-1.77-1.24-3.28-3.01-3.39-8.31-.49-16.62-.98-24.94-1.47.1,7.59.21,15.18.31,22.77Z"/>
        <path class="cls-1" d="M824.45,186.72c-6.1.31-12.2.63-18.3.94-.21.01-1.34.09-2.21,1.05-.55.61-.87,1.43-.82,2.31l.84,16.29c.09,1.77,1.6,3.12,3.36,3.03,6.35-.33,12.7-.65,19.04-.98"/>
        <path class="cls-1" d="M247.97,179.64l27.68,1.64c1.77.1,3.28-1.24,3.39-3.01l.96-16.28c.1-1.77-1.24-3.28-3.01-3.39l-28.13-1.66"/>
        <path class="cls-1" d="M326.07,159.94c-12.22-.13-24.43-.26-36.65-.4-.21,0-1.35,0-2.27.91-.59.57-.95,1.37-.96,2.25l-.18,16.31c-.02,1.77,1.4,3.22,3.17,3.24,11.84.13,23.67.26,35.51.38"/>
        <rect class="cls-1" x="521.95" y="149.55" width="22.72" height="68.15" rx="3.2" ry="3.2" transform="translate(306.21 699.93) rotate(-85.26)"/>
        <path class="cls-1" d="M983.5,221.93l27.44,2.11c1.76.14,3.3-1.18,3.44-2.95l1.25-16.26c.14-1.76-1.18-3.3-2.95-3.44l-28.51-2.19"/>
        <rect class="cls-1" x="1046.05" y="183" width="22.72" height="68.15" rx="3.2" ry="3.2" transform="translate(759.85 1254.7) rotate(-85.6)"/>
      </g>
    </g>
  </g>
</svg>