<?xml version="1.0" encoding="UTF-8"?><svg xmlns="http://www.w3.org/2000/svg" xmlns:xlink="http://www.w3.org/1999/xlink" viewBox="0 0 1061.2 270.9"><defs><style>.f{fill:#0064b1;}.g{fill:#003772;}.h{fill:none;}.i{fill:#008ae4;}.j{clip-path:url(#e);}.k{fill:#f9f9e4;}</style><clipPath id="e"><path class="h" d="M207.7,193.9c.4.8.7,2,.7,3,0,2-1.2,4.1-3.2,4.8l-38.2,11.7c-1,.4-2.2.5-3.2.4-3.2-.1-5.5-2-6-3.4l-39.4-100.4c-.5-1.4-1.1-2-1.7-2.1-1.6,0-4,5.4-17.9,36.2l22.5,2.2c2.6.1,4.4,2.4,4.3,5v.4s-4,35.3-4,35.3c-.3,2.4-2.4,4.4-5,4.3h-.4s-36.5-3.5-36.5-3.5c-4.2,9.3-7.3,16.5-8,18.3-1.1,2.3-2.7,3.6-5.1,3.5-1,0-2-.3-3.1-.7l-29.8-10.1c-3.7-1.4-5.2-3.8-5-6.8.3-6.1,39.2-115.6,72.7-144.2,1.2-.9,4.3-2.2,7.2-2l28.7,1.3c4.1.2,7.4,2.3,8.1,4.1l62.2,142.7ZM280.3,73.8c-5.1-1.9-10.5-3.4-16.2-4.2-8.4-1.2-17.4-1.1-26.9.4l-19.7-1.8c-1.9-.3-3.6,1.2-3.9,3.2l-7.8,88.3c-.3,2,1.2,3.6,3.2,3.9l33.8,3c1.9.3,3.6-1,3.9-2.9v-.3s5.4-60.1,5.4-60.1c2.8-.3,5.2-.3,7.6,0,2.9.4,5.7,1.3,8.2,2.6.6.3,1.3.5,1.8.6,2,.3,3.9-.6,4.7-2.9l8.3-23.1c.3-.8.6-1.5.7-2.1.3-2-.5-3.5-3-4.6ZM1016,104.6c-1.7-.1-11.5-.3-13.2-.5-2.3,3.3-6.2,5-10.2,4.6-5.7-.6-8.3-5.5-8.5-5.9,1-10.6,1.7-13.7,1.7-16.9,0-.9-.1-2.5-1.2-3.6-.7-.7-1.7-1.1-3-1.2l-32.2-1.5h-.7c-4.4,0-4.8,3.2-4.9,5.3-.5,7.3-1.1,14.6-1.5,21.1l-19.3-2.3c-2,0-3.6,1.5-3.7,3.4l-2.8,39.3c0,.6.2,1.7,1,2.5.3.3.8.6,1.8.9,1.5.4,6.3,1.6,9,1.1.8-.2,1.4-.3,2.1-.6,2.9-1.4,3-15.2,4.8-18.5.9-1.7,2.6-4.1,6.2-6.2,0,3.5,0,9,.4,15.8,1.5,23.6,2.6,41.2,14.2,52.6,5.7,5.6,13.4,8.9,23.6,10.9.5.2,1,.2,1.5.2,2.6,0,4.1-1.7,5.4-4.9l8.9-21.4c.2-.5.3-1,.3-1.4,0-1.9-2-2.6-3.9-3.4-7.5-3.2-8.5-11.5-8.5-27,.2-.3,3.5-4.8,9.2-4.6,5.8.2,8.8,4.9,9,5.2,2.1.2,12.4.6,14.5.8.4-.4,1-1.1,1.5-1.8.5-.8.9-1.6,1.1-2.3l.9-35.9c0-2-1.5-3.7-3.4-3.7ZM386.7,49.1c.4-2.2-.8-3.9-3.1-7.2-2.3-3.3-3.4-5-5.6-5.4-3.5-.7-7.8,2.3-8.5,5.9-.4,2.4.8,4.3,2.7,7,1.9,2.8,3.3,4.9,5.8,5.4,3.7.7,8.2-2.3,8.8-5.8ZM392.6,98.1c-.2,1.6-1.2,13.7,4.3,16.4.9.4,1.4.4,9,0,7.4-.3,8-.3,8.9-.8,4.5-3.1,1.7-14,1.1-16.2.9-.5,13-7.1,13.9-19.3.9-12.8-11.1-25.1-25-25.2-14,0-25.8,12.3-25.2,25.2.6,12.2,12.1,19.2,13.1,19.8ZM423.7,117.4h-.3l-34,1.7c-2,.2-3.4,1.7-3.4,3.7l4.3,82.9c.2,1.9,1.5,3.4,3.4,3.4h.3l34-1.7c1.7-.2,3.2-1.7,3.2-3.4v-.3l-4.3-83.1c0-1.7-1.5-3.2-3.2-3.2ZM367.6,58.3c-3.8-1.4-5.7-2-7.7-1.2-3.3,1.5-5.1,6.4-3.5,9.7,1,2.2,3.2,3,6.2,4.2,3.2,1.2,5.5,2.1,7.8,1.1,3.4-1.5,5.4-6.6,3.8-9.8-.9-2-2.9-2.7-6.7-4ZM409.1,46.4c1.5-1.6,1.5-3.7,1.4-7.7,0-4-.1-6-1.6-7.6-2.5-2.5-7.8-2.4-10.4.2-1.7,1.7-1.7,4-1.7,7.3,0,3.4,0,5.9,1.8,7.7,2.6,2.7,8.1,2.7,10.5,0ZM452.5,67.1c1.6-3.2-.1-8.2-3.4-9.8-2.2-1.1-4.4-.4-7.5.7-3.2,1-5.6,1.8-6.8,4.1-1.7,3.3,0,8.5,3.2,10,2,.9,3.9.3,7.8-1.1,3.8-1.3,5.7-2,6.7-3.9ZM438.4,43.3c-.4-3.5-4.6-6.8-8.2-6.3-2.4.3-3.8,2.1-5.9,4.7-2.1,2.7-3.7,4.6-3.4,7.1.4,3.7,4.7,7.1,8.2,6.6,2.2-.3,3.4-2,5.9-5.2,2.4-3.2,3.7-4.8,3.4-7ZM509.9,82.7c-.8-3.2-2.5-4-9.1-4.8-22.2-2.5-50.9,4.6-53,23.7-.7,6.4,1.5,14,8,23.3l4,5.6c2,3.3,3.9,6.3,3.7,8.5-.5,4.1-5.7,8.3-15.7,7.3-2-.2-5.5-.3-5.7,2.3,0,.3,0,.9.2,1.4l5.2,20.5c.7,3,2.3,3.9,6,4.3l1.9.2c22.7,2.5,54.2-4.9,56.4-24.8.7-6.4-1.8-14.4-8.6-23.8-5.6-7.8-7.8-11.3-7.5-14.2.4-3.4,4.7-6.3,14.8-5.2h.7c2.2.3,4.1-.1,4.3-2,0-.5.1-1-.1-1.7l-5.4-20.5ZM627.5,173.1c4,3.2,8.1,6.5,12.1,9.7-3.9,6.7-7.7,13.4-11.6,20-1.9,1.4-3.8,2.8-5.7,4.1-7.2-3.9-14.4-7.9-21.6-11.8-9,1.8-18,3.5-27,5.3-12.9-5.1-25.8-10.2-38.6-15.3-3.9-12.2-7.9-24.3-11.8-36.5,2.4-9.2,4.8-18.4,7.2-27.5,6.6-5.1,13.1-10.2,19.7-15.3,7.9-1.5,15.8-3.1,23.6-4.6,8.5,3.6,16.9,7.2,25.4,10.7.6-2.5,1.2-4.9,1.7-7.4,11.9,2.6,23.9,5.1,35.8,7.7-2.1,14.8-4.3,29.6-6.4,44.4-1,5.4-2,10.9-3,16.3ZM597.8,142.8c-5.1-5.5-10.2-11-15.2-16.4-7,2.5-14,5-21,7.5-1.7,7.1-3.5,14.2-5.2,21.3,5,5.7,10,11.3,15,17,7.6-2.8,15.1-5.7,22.7-8.5,1.3-6.9,2.6-13.8,3.8-20.7ZM362.2,169.1c-8.1-1.2-13-12.1-17-27l11-2.4h.3c1.8-.6,2.7-2.4,2.5-4.1l-5.2-27.8c-.5-2-2.4-3.2-4.2-2.8l-11.5,2.3c-1.3-7-2.7-14.4-4.2-21.4-.7-2.8-2.5-4.1-5.3-3.5l-31.5,6.7-.7.2c-4.3,1.1-3.8,4.3-3.4,6.4,1.4,7.2,2.8,14,4.1,20.4l-10.7,2.1c-2,.5-3.1,2.4-2.8,4.2l5.2,27.8c.5,1.8,2.4,3.1,4.2,2.8l12.5-2.6c11.8,41.4,24.8,53.5,52.7,51.8.5,0,1,0,1.5-.2,2.5-.7,3.5-2.7,4-6.2l3.1-23c0-.5,0-1.1,0-1.4-.5-1.8-2.6-1.9-4.7-2.3ZM770.3,177.6c-4.2-3.4-5.8-7.9-6.6-10-2-5.6-.2-7.2-1.8-12.7-1.3-4.3-3.6-7.4-5.4-9.2,1.1-2.6,2.4-6.4,3-11.2.1-.8,1.7-13.8-4.2-26.8-12.4-27.1-47.2-32.1-51.1-32.5-6.1-.6-12.4-.5-19.2.2l-18.9-2.9h-.3c-1.7-.2-3.4,1.2-3.7,3l-13.2,87.6c-.2,2,1,3.7,3,4.1l33.7,5h.3c1.7.2,3.4-1.2,3.5-2.9l9.3-61.2c6.1,1.8,10.4,4.4,13.1,6.3,2.9,2,10.8,8.2,13.7,19,1,3.8,1.1,7,1,9.2-.4.8-7.7,14.4-1,25.1.6,1,2.8,4.4,6.9,6.7,4.7,2.6,9.6,4,15.9,2.4,5.1-1.3,9-1,11.7-.5,4.9,1,9.8,2.6,9.8,2.6,1.9.6,3.7,1.3,3.8,1,.2-.3-1.7-1.4-3.3-2.6ZM909.4,174.2c0,.4,0,.9-.3,1.7l-8.3,23.2c-1.2,3.3-2.8,5.1-5.1,5.4-1.8.2-14.7-1-24.8-8.3-8.7,6.1-18.1,9.5-27.3,10.6-30,3.9-58.8-15.8-62.5-44.7-2.8-21.5,8.5-54.6,44-59.2,9-1.2,18-.3,25.4,1.8.9-1.4,2.5-2.1,4.6-2.4h.9c0-.1,31.4-1.4,31.4-1.4,4.7-.2,6.3,1.9,6.6,4.1v.9c-.3,16.7-.8,32.6.8,44.5,1.4,10.8,4.4,18.2,10.5,20.5,1.9.7,4,1.5,4.3,3.3ZM854.8,169.6c-1.1-4.6-2.2-9.6-2.9-15.1-.6-4.7-1.1-9.5-1.4-15-2.6-3.3-7.8-5.2-13-4.5-11.3,1.5-16.2,13.2-15,22.4,1.3,10.1,9.4,17.8,21.1,16.3,3.4-.4,7.3-1.7,11.2-4Z"/></clipPath></defs><g id="b"><path class="g" d="M1033.3,102.9c-9.7-3.8-13.5-12.2-22.2-17.8-9.7-6.4-21.4-7-31.7-7.6-19.3-1.1-34.2-.6-48.6,18-5,7.3-13,7.2-21.1,5.1-17.7-3.8-35.6-.4-53.5-.6-25.1-.8-41.7,4.1-63.5,17.1-24.2-31.3-55.3-46.5-95.5-45.8-19.1-1.5-43.1-2.9-51.8,27.4-1.3,5.2-2.7,7.4-3.5,7.8-22.2-1.6-44.2-11-69.1-5.8-6.9.7-13.9,3.8-20.4,3.9-1.4-.3-2.4-1.5-5-6.2-12.9-24.3-27.4-20.7-55.5-25.6-11-6.5-16.2-21.4-27-29.5-9.2-7.4-19.4-8.9-29.6-12.1-14.3-5.8-30.9-4-42.8.4-18.9,3.4-33.4,13.1-42.5,30.4-7.3,13.6-18.4,22.5-32.7,19.3-22.6-11.9-40.9-16.8-66.6-15.3-28.4-1.5-48.4,2.3-54.7,29.4-11.5-28.5-19.7-52-59.8-52.3-12.8-.6-25.2-.6-37.4,5.8-39.8,28.1-58.8,87.8-78.4,134.1-21.7,46.6-1.8,70.6,34.4,79.3,27.2,9.3,34.1,3,56-12.2,7.3-2.1,17.7-1.7,25.4-1.9,13.4,5.7,14.8,22.9,39.5,22.6,22-2.5,63.7-9.5,70.7-38.7.7-2.2,1.7-5.5,2.8-6.5,16.2-5.7,25.7-6,34.3-23,9.9,6,17.1,17,23.2,27.2,14,21.5,39.2,32.7,67.4,30,7.9-.4,16.5,3.6,24.6,5.7,8.2,2,16.1,1.6,23.9,1.3,13.4.4,39.9-4,46.3-24.6,2.1-4.5,3.4-7.3,5.6-8.1,12.9-2.3,27.4-3.4,39.5-7.8,5.3-2.5,11.1,7.2,16.4,10.8,7.4,5.6,15.6,7.9,24,11.6,10.6,4.5,21.6,9.1,34,8.8,20.3-2.5,21.8,1,39.8,6.7,21.9,4.3,35.6-17.2,41-25.5,6.1-10.2,8.3-10.2,19.2-10,10.4,1.7,22.1-3.7,31.6-5.4,9.2,2.4,19.5,10.8,31.8,11.2,27.1,0,32.4,5.3,54,19.7,22.6,13.5,50.1,12,75,6.2,30.3,2.1,47.2,2.5,60.3-25.1,33.4,40.2,81.8,35.1,93.5-19.2,1.8-5.8,3.7-9.5,6.1-12.3,17.5-16.6,19.3-26.3,19.9-49.6.9-19.8-.5-41.8-27.6-51.5Z"/></g><g id="c"><path class="k" d="M1021.6,75.3c-9.7-3.8-13.5-12.2-22.2-17.8-9.7-6.4-21.4-7-31.7-7.6-19.3-1.1-34.2-.6-48.6,18-5,7.3-13,7.2-21.1,5.1-17.7-3.8-35.6-.4-53.5-.6-25.1-.8-41.7,4.1-63.5,17.1-24.2-31.3-55.3-46.5-95.5-45.8-19.1-1.5-43.1-2.9-51.8,27.4-1.3,5.2-2.7,7.4-3.5,7.8-22.2-1.6-44.2-11-69.1-5.8-6.9.7-13.9,3.8-20.4,3.9-1.4-.3-2.4-1.5-5-6.2-12.9-24.3-27.4-20.7-55.5-25.6-11-6.5-16.2-21.4-27-29.5-9.2-7.4-19.4-8.9-29.6-12.1-14.3-5.8-30.9-4-42.8.4-18.9,3.4-33.4,13.1-42.5,30.4-7.3,13.6-18.4,22.5-32.7,19.3-22.6-11.9-40.9-16.8-66.6-15.3-28.4-1.5-48.4,2.3-54.7,29.4-11.5-28.5-19.7-52-59.8-52.3-12.8-.6-25.2-.6-37.4,5.8C47.6,49.5,28.6,109.2,9,155.5c-21.7,46.6-1.8,70.6,34.4,79.3,27.2,9.3,34.1,3,56-12.2,7.3-2.1,17.7-1.7,25.4-1.9,13.4,5.7,14.8,22.9,39.5,22.6,22-2.5,63.7-9.5,70.7-38.7.7-2.2,1.7-5.5,2.8-6.5,16.2-5.7,25.7-6,34.3-23,9.9,6,17.1,17,23.2,27.2,14,21.5,39.2,32.7,67.4,30,7.9-.4,16.5,3.6,24.6,5.7,8.2,2,16.1,1.6,23.9,1.3,13.4.4,39.9-4,46.3-24.6,2.1-4.5,3.4-7.3,5.6-8.1,12.9-2.3,27.4-3.4,39.5-7.8,5.3-2.5,11.1,7.2,16.4,10.8,7.4,5.6,15.6,7.9,24,11.6,10.6,4.5,21.6,9.1,34,8.8,20.3-2.5,21.8,1,39.8,6.7,21.9,4.3,35.6-17.2,41-25.5,6.1-10.2,8.3-10.2,19.2-10,10.4,1.7,22.1-3.7,31.6-5.4,9.2,2.4,19.5,10.8,31.8,11.2,27.1,0,32.4,5.3,54,19.7,22.6,13.5,50.1,12,75,6.2,30.3,2.1,47.2,2.5,60.3-25.1,33.4,40.2,81.8,35.1,93.5-19.2,1.8-5.8,3.7-9.5,6.1-12.3,17.5-16.6,19.3-26.3,19.9-49.6.9-19.8-.5-41.8-27.6-51.5Z"/></g><g id="d"><g class="j"><rect class="i" x="-49.4" y="-.8" width="1148.2" height="271.3"/><rect class="f" x="445.4" y="181.5" width="22.7" height="68.1" rx="3.2" ry="3.2" transform="translate(230.4 667.1) rotate(-88.6)"/><rect class="f" x="372.8" y="178.1" width="22.7" height="68.1" rx="3.2" ry="3.2" transform="translate(142.3 578.4) rotate(-85.5)"/><rect class="f" x="300.3" y="171.7" width="22.7" height="68.1" rx="3.2" ry="3.2" transform="translate(98.5 512.4) rotate(-88.6)"/><rect class="f" x="227.7" y="168.7" width="22.7" height="68.1" rx="3.2" ry="3.2" transform="translate(22.6 429.4) rotate(-86.6)"/><rect class="f" x="155.2" y="164.4" width="22.7" height="68.1" rx="3.2" ry="3.2" transform="translate(-41.4 353) rotate(-86.6)"/><rect class="f" x="82.6" y="160.1" width="22.7" height="68.1" rx="3.2" ry="3.2" transform="translate(-101.8 284.7) rotate(-89)"/><rect class="f" x="10" y="155.8" width="22.7" height="68.1" rx="3.2" ry="3.2" transform="translate(-169.7 190.8) rotate(-83.9)"/><rect class="f" x="44.2" y="130.5" width="22.7" height="68.1" rx="3.2" ry="3.2" transform="translate(-109.5 218.6) rotate(-89.5)"/><rect class="f" x="118.2" y="134.9" width="22.7" height="68.1" rx="3.2" ry="3.2" transform="translate(-51.5 281.1) rotate(-84.3)"/><rect class="f" x="169.3" y="161.7" width="68.1" height="22.7" rx="3.2" ry="3.2" transform="translate(-6 7.3) rotate(-2)"/><rect class="f" x="264" y="142.1" width="22.7" height="68.1" rx="3.2" ry="3.2" transform="translate(83.2 440.6) rotate(-86.6)"/><rect class="f" x="335.9" y="147.8" width="22.7" height="68.1" rx="3.2" ry="3.2" transform="translate(125.3 504.9) rotate(-83.2)"/><rect class="f" x="408.5" y="153.3" width="22.7" height="68.1" rx="3.2" ry="3.2" transform="translate(223.6 603.1) rotate(-88.8)"/><rect class="f" x="553.6" y="160.6" width="22.7" height="68.1" rx="3.2" ry="3.2" transform="translate(319.6 739.6) rotate(-84.8)"/><rect class="f" x="603.4" y="187.6" width="68.1" height="22.7" rx="3.2" ry="3.2" transform="translate(-1.7 5.4) rotate(-.5)"/><rect class="f" x="775.6" y="166.6" width="22.7" height="68.1" rx="3.2" ry="3.2" transform="translate(524.6 969.3) rotate(-85.5)"/><path class="f" d="M893.6,217.5l1.4-16.3c.2-1.8-1.2-3.3-3-3.5l-62.3-5.3c-1.8-.2-3.4,1.2-3.5,2.9l-1.4,16.3c-.2,1.8,1.2,3.3,3,3.5l62.3,5.3c1.8.2,3.4-1.2,3.5-2.9Z"/><rect class="f" x="956.6" y="159.6" width="22.7" height="68.1" rx="3.2" ry="3.2" transform="translate(700.6 1143.8) rotate(-85.6)"/><path class="f" d="M865.7,168.4c-1.8-.2-3.3,1.1-3.5,2.9l-1.6,16.2c-.2,1.8,1.1,3.3,2.9,3.5l61.4,6.1c1.8.2,3.3-1.1,3.5-2.9l1.6-16.2c.2-1.8-1.1-3.3-2.9-3.5"/><rect class="f" x="808.7" y="142.6" width="22.7" height="68.1" rx="3.2" ry="3.2" transform="translate(595.3 984.9) rotate(-86.6)"/><rect class="f" x="736.8" y="143.8" width="22.7" height="68.1" rx="3.2" ry="3.2" transform="translate(506.4 907.9) rotate(-85.1)"/><rect class="f" x="666.3" y="140" width="22.7" height="68.1" rx="3.2" ry="3.2" transform="translate(489.8 848) rotate(-88.8)"/><rect class="f" x="593.7" y="135.7" width="22.7" height="68.1" rx="3.2" ry="3.2" transform="translate(426.2 772.2) rotate(-89.1)"/><rect class="f" x="516.4" y="131.1" width="22.7" height="68.1" rx="3.2" ry="3.2" transform="translate(317.3 676.5) rotate(-85)"/><rect class="f" x="442.7" y="127.1" width="22.7" height="68.1" rx="3.2" ry="3.2" transform="translate(279.9 610.4) rotate(-88.4)"/><path class="f" d="M380.4,167.1l29.5,2.7c1.6.1,3-1.3,3.1-3.1l1.2-17.2c.1-1.9-1-3.5-2.6-3.6l-31.2-2.9"/><rect class="f" x="285.9" y="141.3" width="68.1" height="22.7" rx="3.2" ry="3.2" transform="translate(-2.7 5.8) rotate(-1)"/><rect class="f" x="225.3" y="114.3" width="22.7" height="68.1" rx="3.2" ry="3.2" transform="translate(74.6 375.8) rotate(-86.6)"/><rect class="f" x="703.8" y="115.2" width="22.7" height="68.1" rx="3.2" ry="3.2" transform="translate(524 854.4) rotate(-86.6)"/><path class="f" d="M646.4,156.1l23.3,1.4c.2,0,1.3,0,2.3-.8.6-.5,1-1.3,1.1-2.2l1-16.3c.1-1.8-1.2-3.3-3-3.4-8.3-.5-16.6-1-24.9-1.5.1,7.6.2,15.2.3,22.8Z"/><path class="f" d="M775.1,139.3c-6.1.3-12.2.6-18.3.9-.2,0-1.3,0-2.2,1.1-.5.6-.9,1.4-.8,2.3l.8,16.3c0,1.8,1.6,3.1,3.4,3,6.3-.3,12.7-.7,19-1"/><path class="f" d="M198.6,132.3l27.7,1.6c1.8.1,3.3-1.2,3.4-3l1-16.3c.1-1.8-1.2-3.3-3-3.4l-28.1-1.7"/><path class="f" d="M276.7,112.6c-12.2-.1-24.4-.3-36.7-.4-.2,0-1.3,0-2.3.9-.6.6-1,1.4-1,2.3l-.2,16.3c0,1.8,1.4,3.2,3.2,3.2,11.8.1,23.7.3,35.5.4"/><rect class="f" x="472.6" y="102.2" width="22.7" height="68.1" rx="3.2" ry="3.2" transform="translate(308.1 607.3) rotate(-85.3)"/><path class="f" d="M934.1,174.6l27.4,2.1c1.8.1,3.3-1.2,3.4-2.9l1.3-16.3c.1-1.8-1.2-3.3-2.9-3.4l-28.5-2.2"/><rect class="f" x="996.7" y="135.6" width="22.7" height="68.1" rx="3.2" ry="3.2" transform="translate(761.5 1161.7) rotate(-85.6)"/></g></g></svg>